<?xml version="1.0" encoding="utf-8"?>
<!-- Generator: Adobe Illustrator 19.2.1, SVG Export Plug-In . SVG Version: 6.00 Build 0)  -->
<svg version="1.1" id="Layer_1" xmlns="http://www.w3.org/2000/svg" xmlns:xlink="http://www.w3.org/1999/xlink" x="0px" y="0px"
	 viewBox="0 0 30 30" style="enable-background:new 0 0 30 30;" xml:space="preserve">
<style type="text/css">
	.st0{fill-rule:evenodd;clip-rule:evenodd;fill:#0B80C5;}
</style>
<path class="st0" d="M10.3,27.2c10.2-0.3,15.7-8.7,15.7-16.1c0-0.2,0-0.5,0-0.7c1.1-0.8,2.1-1.8,2.8-2.9c-1,0.4-2.1,0.8-3.3,0.9
	c1.2-0.7,2.1-1.8,2.5-3.1c-1.1,0.6-2.3,1.1-3.6,1.4c-1-1.1-2.5-1.8-4.2-1.8c-3.1,0-5.7,2.5-5.7,5.7c0,0.4,0.1,0.9,0.1,1.3
	C10.1,11.5,5.9,9.3,3,5.8C2.6,6.7,2.3,7.7,2.3,8.7c0,2,1,3.7,2.5,4.7c-0.9,0-1.8-0.3-2.6-0.7c0,0,0,0,0,0.1c0,2.7,2,5,4.6,5.5
	c-0.5,0.1-1,0.2-1.5,0.2c-0.4,0-0.7,0-1.1-0.1c0.7,2.2,2.8,3.9,5.3,3.9c-1.9,1.5-4.4,2.4-7.1,2.4c-0.5,0-0.9,0-1.4-0.1v0
	c2.4,1.5,5.3,2.5,8.4,2.5H10.3"/>
</svg>
